<svg id="Layer_1" data-name="Layer 1" xmlns="http://www.w3.org/2000/svg" viewBox="0 0 517.97 175.59"><defs><style>.cls-1,.cls-2{fill:#fff;}.cls-2{font-size:30.85px;font-family:MyriadPro-BoldSemiExt, Myriad Pro;font-weight:700;letter-spacing:0.02em;}.cls-3{letter-spacing:0.03em;}.cls-4{letter-spacing:0.01em;}.cls-5{letter-spacing:0.02em;}</style></defs><title>Talisa Insurance Brokers (White)</title><path class="cls-1" d="M89.45,280.2c-7-9.84-21.25-12.91-29.62-19.89-4.54-3.77-7.33-8.7-6.27-16.49C54.4,257.07,82.55,264.39,89.45,280.2Z" transform="translate(-47.01 -218.21)"/><path class="cls-1" d="M101,297.12c-7.7,5.85-15.61,4.46-23.63-.88C86.33,302,94.66,295.26,101,297.12Z" transform="translate(-47.01 -218.21)"/><path class="cls-1" d="M112.07,299.49c-4.46,6.27-9.22,8-14.23,6.17C105.61,307.1,105.94,299.31,112.07,299.49Z" transform="translate(-47.01 -218.21)"/><path class="cls-1" d="M180.52,264.59c4.42-20.44,36.47-26.26,37.93-45.84C222.3,242.14,191.83,246.07,180.52,264.59Z" transform="translate(-47.01 -218.21)"/><path class="cls-1" d="M176.34,280.5c6.91-15.81,35.06-23.12,35.9-36.37C215.24,266.27,187.1,265.32,176.34,280.5Z" transform="translate(-47.01 -218.21)"/><path class="cls-1" d="M188.43,296.53c-8,5.35-15.93,6.74-23.63.89C171.14,295.57,179.48,302.29,188.43,296.53Z" transform="translate(-47.01 -218.21)"/><path class="cls-1" d="M168,306h0Z" transform="translate(-47.01 -218.21)"/><path class="cls-1" d="M147.36,353.24c1.85-12.73-7.24-23.46-2.57-28.76C142.1,331.46,151.74,342.9,147.36,353.24Z" transform="translate(-47.01 -218.21)"/><path class="cls-1" d="M85.35,264.39c-11.31-18.67-42.07-22.54-38-46.18C48.5,238.07,80.9,243.82,85.35,264.39Z" transform="translate(-47.01 -218.21)"/><path class="cls-1" d="M77.37,296.24l-.57-.38" transform="translate(-47.01 -218.21)"/><path class="cls-1" d="M119.19,301.55a12.73,12.73,0,0,1-7,7.43C115.45,307.34,116.39,302.42,119.19,301.55Z" transform="translate(-47.01 -218.21)"/><path class="cls-1" d="M218.48,218.41c0,.12,0,.23,0,.34" transform="translate(-47.01 -218.21)"/><path class="cls-1" d="M174.92,291.41l0,0h-.06c6-8,19.52-5.88,25-19.8C196.82,284.61,188.46,291.17,174.92,291.41Z" transform="translate(-47.01 -218.21)"/><path class="cls-1" d="M90.88,291.12l0,0h.07c-6-8-19.53-5.89-25-19.8C69,284.31,77.33,290.87,90.88,291.12Z" transform="translate(-47.01 -218.21)"/><path class="cls-1" d="M189,296.16l-.57.37" transform="translate(-47.01 -218.21)"/><path class="cls-1" d="M168,306h0c-5,1.83-9.76.08-14.21-6.17v0c6.12-.18,6.45,7.61,14.22,6.17Z" transform="translate(-47.01 -218.21)"/><path class="cls-1" d="M168,306h0Z" transform="translate(-47.01 -218.21)"/><path class="cls-1" d="M153.57,309.28h0a12.7,12.7,0,0,1-7-7.43h0C149.42,302.72,150.35,307.63,153.57,309.28Z" transform="translate(-47.01 -218.21)"/><path class="cls-1" d="M133.19,375.82c2.5-15.72-5.08-32.6,4.73-43.47C130,343.93,138.33,360.67,133.19,375.82Z" transform="translate(-47.01 -218.21)"/><path class="cls-1" d="M121.6,324.48c-2.43,4.4-7.55,4.74-10.87,8.15C114.43,326.62,119.47,326.4,121.6,324.48Z" transform="translate(-47.01 -218.21)"/><path class="cls-1" d="M127.05,332.36c-2.4,3.67-7,14.56-8,20.88C118.87,346.4,123.34,337.3,127.05,332.36Z" transform="translate(-47.01 -218.21)"/><path class="cls-1" d="M127.91,331.27c-.28.34-.56.69-.85,1.08h0" transform="translate(-47.01 -218.21)"/><path class="cls-1" d="M155.66,332.63c-3.33-3.41-8.44-3.75-10.87-8.15C147.31,327,153.85,328.27,155.66,332.63Z" transform="translate(-47.01 -218.21)"/><path class="cls-1" d="M118.62,262.85c3.9,1.46,8.16,3.14,9.3,4.43,1.59,8.25.92,14.7-2.07,19.3,2.65-7.1,1.05-14.94,1.21-18.31C127.19,265.67,118.61,263.63,118.62,262.85Z" transform="translate(-47.01 -218.21)"/><path class="cls-1" d="M150.6,271.71l-2-3.66-7.08-.33v-1.65c-6.23,1.3-14.22-.4-22.89-3.22,8.92,2.06,17.06,3.27,23.5,2.6v1.65l7.08.33Z" transform="translate(-47.01 -218.21)"/><path class="cls-1" d="M250.32,251.05H231.25l-.8,5.76v0l-1.61,11.66h0L225.27,294l-3.49,25.13C218.18,343.43,235.9,343,241.31,343c1.35,0,6.76,0,14.42-3.61l.3-12.91c-6.61,2-8.56,2.1-9.91,2.1-6.31,0-5.71-6.61-5.26-9.76l5.26-37.56H262l1.8-12.77H247.92Z" transform="translate(-47.01 -218.21)"/><path class="cls-1" d="M322.28,268.92a42.69,42.69,0,0,0-15.77-2.25,58.33,58.33,0,0,0-29,7.51l3.16,11.42c10.51-4.66,36.95-12,35.15,5.4l-.15,1.81c-30.95,1.95-50.17,13.37-50.17,31.24,0,13.22,11.86,19.08,20.43,19.08,4.8,0,17.57-1.8,23.58-10.22l-1.2,8.27h19.83l7.06-50.63C337.15,277.64,329.79,271.63,322.28,268.92Zm-9.92,47c-1.65,11.42-15.77,13.37-18.47,13.37-5.56,0-10.07-2.4-10.07-7.66,0-8.56,13.22-15,30.05-16.22Z" transform="translate(-47.01 -218.21)"/><polygon class="cls-1" points="298.4 122.97 317.78 122.97 332.05 21.73 312.67 21.73 298.4 122.97"/><polygon class="cls-1" points="347.52 39.15 366.9 39.15 369.45 21.73 350.07 21.73 347.52 39.15"/><polygon class="cls-1" points="335.8 122.97 355.18 122.97 365.39 50.27 346.02 50.27 335.8 122.97"/><path class="cls-1" d="M455.82,280.49c7.66,0,14.87,5,20.58,8.26l8.71-12.92A48.39,48.39,0,0,0,457,266.52c-16.07,0-32.29,8.86-32.29,24.48,0,5.71,2.85,12.32,13.52,17,21.33,8.41,21.33,8.56,21.78,8.56.6.3,4.2,1.8,1.5,6.61-1.65,2.85-6,5.11-10.82,5.11a34.15,34.15,0,0,1-24-9.92l-9.61,12.77a36.92,36.92,0,0,0,15,9.17,55.43,55.43,0,0,0,16.22,2.55c13.22,0,24-4.66,29-12.92a20.6,20.6,0,0,0,3.91-11.72c0-5.85-3.16-12.61-12.92-17-5.86-2.25-10.82-4.21-14.42-5.41-7.51-2.7-11-3.45-9.76-8.26C445.16,284.1,450,280.49,455.82,280.49Z" transform="translate(-47.01 -218.21)"/><path class="cls-1" d="M546.55,268.92a42.63,42.63,0,0,0-15.77-2.25,58.31,58.31,0,0,0-29,7.51l3.15,11.42c10.52-4.66,37-12,35.15,5.4l-.15,1.81c-30.94,1.95-50.17,13.37-50.17,31.24,0,13.22,11.87,19.08,20.43,19.08,4.81,0,17.58-1.8,23.59-10.22l-1.21,8.27h19.83l7.06-50.63C561.42,277.64,554.07,271.63,546.55,268.92Zm-9.91,47c-1.65,11.42-15.77,13.37-18.48,13.37-5.55,0-10.06-2.4-10.06-7.66,0-8.56,13.22-15,30-16.22Z" transform="translate(-47.01 -218.21)"/><text class="cls-2" transform="translate(174.29 167.34) scale(1.01 1.07)">INSU<tspan class="cls-3" x="75.59" y="0">R</tspan><tspan x="96.05" y="0">ANCE B</tspan><tspan class="cls-4" x="209.62" y="0">R</tspan><tspan class="cls-5" x="229.55" y="0">OKERS </tspan></text></svg>