<svg id="Layer_1" data-name="Layer 1" xmlns="http://www.w3.org/2000/svg" viewBox="0 0 291.9 120.22"><defs><style>.cls-1{fill:#3372b9;}.cls-2{fill:#ed8a3f;}.cls-3{font-size:26px;fill:#19335d;font-family:MyriadPro-BoldSemiExt, Myriad Pro;font-weight:700;letter-spacing:1.26em;}</style></defs><title>Talisa Credit</title><path class="cls-1" d="M182.62,254.54H167.78l-.62,4.48v0l-1.25,9.07h0l-2.76,19.83-2.72,19.55c-2.8,18.93,11,18.58,15.19,18.58a25.83,25.83,0,0,0,11.22-2.81l.23-10.05c-5.14,1.52-6.66,1.64-7.71,1.64-4.91,0-4.44-5.14-4.09-7.59L179.35,278h12.39l1.4-9.93H180.75Z" transform="translate(-160.05 -245.89)"/><path class="cls-1" d="M238.59,268.44a33.16,33.16,0,0,0-12.27-1.75,45.34,45.34,0,0,0-22.55,5.84l2.46,8.88c8.18-3.62,28.74-9.35,27.34,4.21l-.12,1.4c-24.07,1.52-39,10.4-39,24.3,0,10.29,9.23,14.84,15.9,14.84,3.73,0,13.67-1.4,18.34-7.94l-.93,6.43h15.42l5.49-39.38C250.16,275.22,244.43,270.54,238.59,268.44ZM230.88,305c-1.28,8.88-12.27,10.39-14.37,10.39-4.32,0-7.83-1.87-7.83-6,0-6.66,10.28-11.69,23.37-12.62Z" transform="translate(-160.05 -245.89)"/><polygon class="cls-1" points="96.54 78.75 111.61 78.75 122.72 0 107.64 0 96.54 78.75"/><polygon class="cls-2" points="134.75 13.55 149.82 13.55 151.81 0 136.74 0 134.75 13.55"/><polygon class="cls-1" points="125.64 78.75 140.71 78.75 148.65 22.2 133.58 22.2 125.64 78.75"/><path class="cls-1" d="M342.47,277.44c6,0,11.57,3.85,16,6.43l6.78-10.05a37.64,37.64,0,0,0-21.85-7.25c-12.51,0-25.13,6.9-25.13,19.05,0,4.44,2.22,9.58,10.52,13.2,16.59,6.54,16.59,6.66,16.94,6.66.47.24,3.27,1.4,1.17,5.14-1.28,2.22-4.67,4-8.41,4a26.57,26.57,0,0,1-18.7-7.72l-7.48,9.94A28.78,28.78,0,0,0,324,323.94a42.93,42.93,0,0,0,12.62,2c10.28,0,18.69-3.62,22.55-10.05a16.09,16.09,0,0,0,3-9.11c0-4.56-2.46-9.82-10.05-13.21-4.56-1.75-8.41-3.27-11.22-4.2-5.84-2.11-8.53-2.69-7.59-6.43C334.18,280.24,337.91,277.44,342.47,277.44Z" transform="translate(-160.05 -245.89)"/><path class="cls-1" d="M413.05,268.44a33.22,33.22,0,0,0-12.27-1.75,45.3,45.3,0,0,0-22.55,5.84l2.45,8.88c8.18-3.62,28.75-9.35,27.34,4.21l-.11,1.4c-24.07,1.52-39,10.4-39,24.3,0,10.29,9.23,14.84,15.89,14.84,3.74,0,13.67-1.4,18.35-7.94l-.94,6.43h15.43l5.49-39.38C424.62,275.22,418.89,270.54,413.05,268.44ZM405.34,305c-1.29,8.88-12.27,10.39-14.37,10.39-4.33,0-7.83-1.87-7.83-6,0-6.66,10.28-11.69,23.37-12.62Z" transform="translate(-160.05 -245.89)"/><text class="cls-3" transform="translate(0 113.26) scale(1.01 1.07)">CREDIT</text></svg>