<svg id="Layer_1" data-name="Layer 1" xmlns="http://www.w3.org/2000/svg" viewBox="0 0 267.34 119.68"><defs><style>.cls-1{fill:#3372b9;}.cls-2{fill:#ed8a3f;}.cls-3{font-size:24px;fill:#19335d;font-family:MyriadPro-BoldSemiExt, Myriad Pro;font-weight:700;letter-spacing:0.02em;}.cls-4{letter-spacing:0.03em;}.cls-5{letter-spacing:0.02em;}.cls-6{letter-spacing:0.01em;}</style></defs><title>Talisa Insurance Brokers</title><path class="cls-1" d="M194.91,254.8H180.07l-.62,4.49v0l-1.25,9.07h0l-2.76,19.83-2.72,19.55c-2.8,18.93,11,18.57,15.19,18.57a25.88,25.88,0,0,0,11.22-2.8l.24-10.05c-5.15,1.52-6.66,1.64-7.72,1.64-4.9,0-4.44-5.14-4.09-7.6l4.09-29.21H204l1.4-9.93H193Z" transform="translate(-172.33 -246.16)"/><path class="cls-1" d="M250.88,268.71A33,33,0,0,0,238.61,267a45.36,45.36,0,0,0-22.56,5.84l2.46,8.88c8.18-3.62,28.74-9.35,27.34,4.21l-.12,1.4c-24.07,1.52-39,10.4-39,24.3,0,10.28,9.23,14.84,15.89,14.84,3.74,0,13.67-1.4,18.34-7.94l-.93,6.42h15.42l5.49-39.37C262.44,275.49,256.72,270.81,250.88,268.71Zm-7.72,36.57c-1.28,8.88-12.27,10.4-14.37,10.4-4.32,0-7.83-1.87-7.83-6,0-6.66,10.29-11.68,23.37-12.62Z" transform="translate(-172.33 -246.16)"/><polygon class="cls-1" points="96.54 78.75 111.61 78.75 122.72 0 107.64 0 96.54 78.75"/><polygon class="cls-2" points="134.75 13.55 149.82 13.55 151.81 0 136.74 0 134.75 13.55"/><polygon class="cls-1" points="125.64 78.75 140.71 78.75 148.65 22.2 133.58 22.2 125.64 78.75"/><path class="cls-1" d="M354.75,277.71c6,0,11.57,3.85,16,6.42l6.78-10.05a37.61,37.61,0,0,0-21.85-7.24c-12.5,0-25.12,6.89-25.12,19.05,0,4.44,2.22,9.58,10.51,13.2,16.6,6.54,16.6,6.66,16.95,6.66.46.23,3.27,1.4,1.16,5.14-1.28,2.22-4.67,4-8.41,4a26.54,26.54,0,0,1-18.69-7.71l-7.48,9.93a28.61,28.61,0,0,0,11.68,7.13,43,43,0,0,0,12.62,2c10.28,0,18.7-3.62,22.55-10.05a16,16,0,0,0,3-9.11c0-4.56-2.45-9.82-10.05-13.21-4.55-1.75-8.41-3.27-11.21-4.2-5.85-2.11-8.53-2.69-7.6-6.43C346.46,280.51,350.2,277.71,354.75,277.71Z" transform="translate(-172.33 -246.16)"/><path class="cls-1" d="M425.33,268.71A33,33,0,0,0,413.06,267a45.34,45.34,0,0,0-22.55,5.84l2.46,8.88c8.18-3.62,28.74-9.35,27.34,4.21l-.12,1.4c-24.07,1.52-39,10.4-39,24.3,0,10.28,9.23,14.84,15.89,14.84,3.74,0,13.68-1.4,18.35-7.94l-.93,6.42h15.42l5.49-39.37C436.9,275.49,431.17,270.81,425.33,268.71Zm-7.71,36.57c-1.28,8.88-12.27,10.4-14.37,10.4-4.32,0-7.83-1.87-7.83-6,0-6.66,10.28-11.68,23.37-12.62Z" transform="translate(-172.33 -246.16)"/><text class="cls-3" transform="translate(0 113.26) scale(1.01 1.07)">INSU<tspan class="cls-4" x="58.8" y="0">R</tspan><tspan class="cls-5" x="74.71" y="0">ANCE B</tspan><tspan class="cls-6" x="163.05" y="0">R</tspan><tspan class="cls-5" x="178.56" y="0">OKERS </tspan></text></svg>