<svg id="Layer_1" data-name="Layer 1" xmlns="http://www.w3.org/2000/svg" viewBox="0 0 133.62 122.6"><defs><style>.cls-1{fill:#ed8a3f;}</style></defs><title>Talisa Phoenix</title><path class="cls-1" d="M272.2,292.92c-5.42-7.66-16.53-10-23-15.47-3.53-2.93-5.7-6.77-4.88-12.82C244.94,274.93,266.83,280.62,272.2,292.92Z" transform="translate(-239.19 -244.7)"/><path class="cls-1" d="M281.18,306.09c-6,4.54-12.13,3.46-18.38-.7C269.77,309.87,276.25,304.64,281.18,306.09Z" transform="translate(-239.19 -244.7)"/><path class="cls-1" d="M289.8,307.93c-3.47,4.87-7.18,6.23-11.07,4.79C284.77,313.85,285,307.78,289.8,307.93Z" transform="translate(-239.19 -244.7)"/><path class="cls-1" d="M343,280.78c3.44-15.9,28.37-20.42,29.51-35.66C375.54,263.32,351.84,266.38,343,280.78Z" transform="translate(-239.19 -244.7)"/><path class="cls-1" d="M339.79,293.16c5.37-12.3,27.27-18,27.93-28.29C370.05,282.09,348.16,281.35,339.79,293.16Z" transform="translate(-239.19 -244.7)"/><path class="cls-1" d="M349.2,305.63c-6.25,4.16-12.4,5.24-18.38.69C335.75,304.87,342.23,310.1,349.2,305.63Z" transform="translate(-239.19 -244.7)"/><path class="cls-1" d="M333.27,313Z" transform="translate(-239.19 -244.7)"/><path class="cls-1" d="M317.25,349.73c1.44-9.9-5.63-18.25-2-22.36C313.15,332.79,320.66,341.69,317.25,349.73Z" transform="translate(-239.19 -244.7)"/><path class="cls-1" d="M269,280.62c-8.8-14.52-32.73-17.53-29.53-35.92C240.35,260.15,265.55,264.63,269,280.62Z" transform="translate(-239.19 -244.7)"/><path class="cls-1" d="M262.8,305.39c-.14-.09-.29-.18-.44-.29" transform="translate(-239.19 -244.7)"/><path class="cls-1" d="M295.33,309.53a9.87,9.87,0,0,1-5.41,5.78C292.43,314,293.15,310.21,295.33,309.53Z" transform="translate(-239.19 -244.7)"/><path class="cls-1" d="M372.57,244.86c0,.09,0,.17,0,.26" transform="translate(-239.19 -244.7)"/><path class="cls-1" d="M338.68,301.64l0,0h-.05c4.67-6.2,15.19-4.58,19.47-15.4C355.72,296.35,349.22,301.46,338.68,301.64Z" transform="translate(-239.19 -244.7)"/><path class="cls-1" d="M273.31,301.41l0,0h0c-4.67-6.2-15.19-4.58-19.47-15.41C256.27,296.12,262.77,301.22,273.31,301.41Z" transform="translate(-239.19 -244.7)"/><path class="cls-1" d="M349.64,305.33l-.44.3" transform="translate(-239.19 -244.7)"/><path class="cls-1" d="M333.27,313h0c-3.9,1.42-7.59.06-11.06-4.8v0c4.77-.14,5,5.92,11.06,4.8Z" transform="translate(-239.19 -244.7)"/><path class="cls-1" d="M333.27,313h0Z" transform="translate(-239.19 -244.7)"/><path class="cls-1" d="M322.08,315.54h0a9.85,9.85,0,0,1-5.41-5.78h0C318.85,310.44,319.57,314.26,322.08,315.54Z" transform="translate(-239.19 -244.7)"/><path class="cls-1" d="M306.22,367.3c1.95-12.23-4-25.35,3.68-33.81C303.72,342.5,310.23,355.52,306.22,367.3Z" transform="translate(-239.19 -244.7)"/><path class="cls-1" d="M297.21,327.37c-1.9,3.41-5.87,3.68-8.46,6.34C291.63,329,295.55,328.86,297.21,327.37Z" transform="translate(-239.19 -244.7)"/><path class="cls-1" d="M301.45,333.49c-1.87,2.86-5.47,11.33-6.24,16.24C295.09,344.42,298.56,337.34,301.45,333.49Z" transform="translate(-239.19 -244.7)"/><path class="cls-1" d="M302.12,332.65c-.22.26-.44.54-.67.84h0" transform="translate(-239.19 -244.7)"/><path class="cls-1" d="M323.7,333.71c-2.58-2.66-6.56-2.93-8.45-6.34C317.21,329.31,322.3,330.32,323.7,333.71Z" transform="translate(-239.19 -244.7)"/><path class="cls-1" d="M294.89,279.42c3,1.14,6.35,2.45,7.24,3.45,1.23,6.42.71,11.43-1.62,15,2.06-5.52.83-11.62.95-14.24C301.56,281.62,294.88,280,294.89,279.42Z" transform="translate(-239.19 -244.7)"/><path class="cls-1" d="M319.76,286.32l-1.56-2.85-5.5-.26v-1.28c-4.85,1-11.07-.31-17.81-2.51,6.94,1.61,13.27,2.55,18.28,2v1.28l5.51.26Z" transform="translate(-239.19 -244.7)"/></svg>